<svg width="18" height="18" viewBox="0 0 18 18" fill="none" xmlns="http://www.w3.org/2000/svg">
<path d="M12.75 6.75L8.67426 10.8257C8.52576 10.9742 8.4515 11.0485 8.36588 11.0763C8.29057 11.1008 8.20943 11.1008 8.13412 11.0763C8.0485 11.0485 7.97424 10.9742 7.82574 10.8257L6.42426 9.42426C6.27576 9.27576 6.2015 9.2015 6.11588 9.17368C6.04057 9.14921 5.95943 9.14921 5.88412 9.17368C5.7985 9.2015 5.72424 9.27576 5.57574 9.42426L2.25 12.75M12.75 6.75H9.75M12.75 6.75V9.75M5.85 15.75H12.15C13.4101 15.75 14.0402 15.75 14.5215 15.5048C14.9448 15.289 15.289 14.9448 15.5048 14.5215C15.75 14.0402 15.75 13.4101 15.75 12.15V5.85C15.75 4.58988 15.75 3.95982 15.5048 3.47852C15.289 3.05516 14.9448 2.71095 14.5215 2.49524C14.0402 2.25 13.4101 2.25 12.15 2.25H5.85C4.58988 2.25 3.95982 2.25 3.47852 2.49524C3.05516 2.71095 2.71095 3.05516 2.49524 3.47852C2.25 3.95982 2.25 4.58988 2.25 5.85V12.15C2.25 13.4101 2.25 14.0402 2.49524 14.5215C2.71095 14.9448 3.05516 15.289 3.47852 15.5048C3.95982 15.75 4.58988 15.75 5.85 15.75Z" stroke="#717680" stroke-width="1.66667" stroke-linecap="round" stroke-linejoin="round"/>
</svg>
