<svg width="30" height="30" viewBox="0 0 30 30" fill="none" xmlns="http://www.w3.org/2000/svg">
<path opacity="0.4" fill-rule="evenodd" clip-rule="evenodd" d="M15 30C23.2843 30 30 23.2843 30 15C30 6.71573 23.2843 0 15 0C6.71573 0 0 6.71573 0 15C0 23.2843 6.71573 30 15 30Z" fill="url(#paint0_linear_26_3932)"/>
<path fill-rule="evenodd" clip-rule="evenodd" d="M21.3326 11.2406C21.3326 11.6129 21.6635 11.9147 22.0724 11.9147C22.1617 11.9146 22.2503 11.8996 22.3347 11.8705V18.0205C22.2259 17.9672 22.1062 17.9398 21.985 17.9406C21.5761 17.9406 21.2451 18.2386 21.2451 18.6146C21.2511 18.8779 21.4108 19.1133 21.6531 19.2163L15.6996 22.3458C15.6144 22.013 15.3146 21.7803 14.9711 21.7803C14.6276 21.7803 14.3277 22.013 14.2425 22.3458L8.3529 19.2492C8.44966 19.1355 8.50325 18.9914 8.50426 18.8421C8.50426 18.4708 8.17241 18.169 7.76347 18.169C7.71108 18.1688 7.6588 18.1738 7.60742 18.1841V11.8742C7.64967 11.8814 7.69242 11.8852 7.73527 11.8855C8.14327 11.8855 8.47511 11.5875 8.47511 11.2115C8.47385 11.0408 8.40448 10.8777 8.2824 10.7584L14.2632 7.61475C14.3783 7.90545 14.6593 8.09637 14.972 8.09637C15.2847 8.09637 15.5657 7.90545 15.6808 7.61475L21.5967 10.7273C21.4331 10.8476 21.3353 11.0376 21.3326 11.2406ZM16.4273 17.3784C16.4273 17.3784 15.5304 17.8757 14.0263 17.6492V17.6482C14.0263 17.6482 12.8512 17.3615 12.4009 16.6762L21.0496 12.302C21.0496 12.302 21.2649 12.1704 21.2113 11.9824C21.1833 11.8858 21.1034 11.8131 21.0045 11.7944C20.8531 11.7776 20.7006 11.8138 20.573 11.8968L18.7577 12.8275C18.2702 12.2046 17.6385 11.7097 16.917 11.3854C16.917 11.3854 16.4583 11.0639 15.3302 11.0094V9.02208C15.331 8.96643 15.3124 8.91223 15.2775 8.86885C15.2016 8.78775 15.0918 8.74732 14.9814 8.7598C14.9814 8.7598 14.7502 8.74852 14.6994 9.05404V11.0282C14.6994 11.0282 13.4876 11.0103 12.5005 11.5923C11.968 11.8694 11.4935 12.2459 11.1026 12.7015L9.33342 11.8263C9.33342 11.8263 8.99875 11.6787 8.82202 11.9203C8.82202 11.9203 8.6575 12.161 8.97525 12.3255L10.7285 13.2224C10.3868 13.8105 10.2234 14.4853 10.2585 15.1646C10.2585 15.1646 10.2387 15.8461 10.7379 16.7862L8.99029 17.7028C8.87555 17.7454 8.80019 17.8558 8.80228 17.9782C8.80669 18.0861 8.88437 18.177 8.99029 18.1982C9.15845 18.2297 9.33223 18.1932 9.47349 18.0967L11.0368 17.3267C11.0368 17.3267 11.6723 18.2781 12.7572 18.6428C12.7572 18.6428 13.8655 19.0602 14.6486 19.1129V20.8426C14.6481 20.9191 14.6679 20.9944 14.706 21.0607C14.7591 21.1723 14.8701 21.2449 14.9936 21.2487C15.1005 21.2472 15.1974 21.1853 15.2437 21.0889C15.2793 21.0232 15.2975 20.9494 15.2963 20.8746V19.0772C15.2963 19.0772 16.6388 19.0114 17.4689 18.4003C17.4689 18.4003 18.2877 17.9378 18.7737 17.229L20.7479 18.2311C20.7479 18.2311 21.0534 18.3176 21.1164 18.1606C21.181 18.0017 21.1083 17.8201 20.9519 17.7498L19.0595 16.7467C19.0595 16.7467 19.24 16.3735 19.1977 16.0379C19.1663 15.8249 19.0164 15.6484 18.8113 15.5829C18.7805 15.572 18.7491 15.5629 18.7173 15.5556C18.332 15.4806 17.9432 15.6675 17.7612 16.0153C17.6963 16.1363 17.6407 16.262 17.5948 16.3914C17.5948 16.3914 17.1991 17.0964 16.4273 17.3784Z" fill="white"/>
<path fill-rule="evenodd" clip-rule="evenodd" d="M13.416 12.6224C13.416 12.6224 11.7004 13.2175 11.8884 15.4737L16.8079 12.9665C16.8079 12.9665 15.4278 11.8384 13.416 12.6224" fill="white"/>
<path fill-rule="evenodd" clip-rule="evenodd" d="M7.82876 11.6165C8.02813 11.6165 8.18975 11.4549 8.18975 11.2555C8.18975 11.0562 8.02813 10.8945 7.82876 10.8945C7.62939 10.8945 7.46777 11.0562 7.46777 11.2555C7.46777 11.4549 7.62939 11.6165 7.82876 11.6165Z" fill="white"/>
<path fill-rule="evenodd" clip-rule="evenodd" d="M14.9997 7.8045C15.199 7.8045 15.3607 7.64288 15.3607 7.44351C15.3607 7.24414 15.199 7.08252 14.9997 7.08252C14.8003 7.08252 14.6387 7.24414 14.6387 7.44351C14.6387 7.64288 14.8003 7.8045 14.9997 7.8045Z" fill="white"/>
<path fill-rule="evenodd" clip-rule="evenodd" d="M14.9997 22.8455C15.199 22.8455 15.3607 22.6839 15.3607 22.4845C15.3607 22.2852 15.199 22.1235 14.9997 22.1235C14.8003 22.1235 14.6387 22.2852 14.6387 22.4845C14.6387 22.6839 14.8003 22.8455 14.9997 22.8455Z" fill="white"/>
<path fill-rule="evenodd" clip-rule="evenodd" d="M7.82876 19.1561C8.02813 19.1561 8.18975 18.9944 8.18975 18.7951C8.18975 18.5957 8.02813 18.4341 7.82876 18.4341C7.62939 18.4341 7.46777 18.5957 7.46777 18.7951C7.46777 18.9944 7.62939 19.1561 7.82876 19.1561Z" fill="white"/>
<path fill-rule="evenodd" clip-rule="evenodd" d="M21.9752 18.9764C22.1746 18.9764 22.3362 18.8148 22.3362 18.6154C22.3362 18.416 22.1746 18.2544 21.9752 18.2544C21.7759 18.2544 21.6143 18.416 21.6143 18.6154C21.6143 18.8148 21.7759 18.9764 21.9752 18.9764Z" fill="white"/>
<path fill-rule="evenodd" clip-rule="evenodd" d="M21.9752 11.6165C22.1746 11.6165 22.3362 11.4549 22.3362 11.2555C22.3362 11.0562 22.1746 10.8945 21.9752 10.8945C21.7759 10.8945 21.6143 11.0562 21.6143 11.2555C21.6143 11.4549 21.7759 11.6165 21.9752 11.6165Z" fill="white"/>
<defs>
<linearGradient id="paint0_linear_26_3932" x1="18.9737" y1="31.5971" x2="18.9737" y2="-6.35039" gradientUnits="userSpaceOnUse">
<stop stop-color="#7400D4"/>
<stop offset="1" stop-color="#CA00AA"/>
</linearGradient>
</defs>
</svg>
