<svg width="16" height="16" viewBox="0 0 16 16" fill="none" xmlns="http://www.w3.org/2000/svg">
<g clip-path="url(#clip0_112_5653)">
<path d="M8.19994 0.533325C4.07578 0.533325 0.733276 3.87583 0.733276 7.99999C0.733276 11.1646 2.70203 13.8654 5.47869 14.9533C5.41453 14.3612 5.35328 13.4571 5.50494 12.8125C5.64203 12.2292 6.37994 9.10249 6.37994 9.10249C6.37994 9.10249 6.15536 8.65624 6.15536 7.99416C6.15536 6.95583 6.75619 6.17999 7.50578 6.17999C8.14161 6.17999 8.45078 6.65833 8.45078 7.23291C8.45078 7.87458 8.04244 8.83124 7.83244 9.71791C7.65744 10.4617 8.20578 11.0683 8.93786 11.0683C10.2649 11.0683 11.2858 9.66833 11.2858 7.64999C11.2858 5.86208 10.0024 4.61083 8.16786 4.61083C6.04453 4.61083 4.79619 6.20332 4.79619 7.85124C4.79619 8.49291 5.04411 9.18124 5.35328 9.55457C5.41453 9.62749 5.42328 9.69458 5.40578 9.76749C5.35036 10.0037 5.22203 10.5112 5.19869 10.6133C5.16661 10.7504 5.09078 10.7796 4.94786 10.7125C4.01453 10.2779 3.43119 8.91583 3.43119 7.81916C3.43119 5.46249 5.14328 3.30124 8.36328 3.30124C10.9533 3.30124 12.9658 5.14749 12.9658 7.61499C12.9658 10.1875 11.3441 12.2583 9.09244 12.2583C8.33703 12.2583 7.62536 11.8646 7.38036 11.4008C7.38036 11.4008 7.00703 12.8271 6.91661 13.1771C6.74744 13.8246 6.29244 14.6383 5.98911 15.1342C6.68911 15.35 7.42994 15.4667 8.19994 15.4667C12.3241 15.4667 15.6666 12.1242 15.6666 7.99999C15.6666 3.87583 12.3241 0.533325 8.19994 0.533325Z" fill="#89806F"/>
</g>
<defs>
<clipPath id="clip0_112_5653">
<rect width="14.9333" height="14.9333" fill="white" transform="translate(0.733276 0.533325)"/>
</clipPath>
</defs>
</svg>
