<svg width="16" height="16" viewBox="0 0 16 16" fill="none" xmlns="http://www.w3.org/2000/svg">
<g clip-path="url(#clip0_112_5649)">
<path d="M15.8 7.99999C15.8 3.87626 12.457 0.533325 8.3333 0.533325C4.20958 0.533325 0.866638 3.87626 0.866638 7.99999C0.866638 11.7268 3.59708 14.8158 7.16664 15.376V10.1583H5.2708V7.99999H7.16664V6.35499C7.16664 4.48366 8.28139 3.44999 9.98691 3.44999C10.8036 3.44999 11.6583 3.59583 11.6583 3.59583V5.43333H10.7168C9.7893 5.43333 9.49997 6.00893 9.49997 6.59999V7.99999H11.5708L11.2398 10.1583H9.49997V15.376C13.0695 14.8158 15.8 11.7268 15.8 7.99999Z" fill="#89806F"/>
</g>
<defs>
<clipPath id="clip0_112_5649">
<rect width="14.9333" height="14.9333" fill="white" transform="translate(0.866638 0.533325)"/>
</clipPath>
</defs>
</svg>
