<svg width="15" height="14" viewBox="0 0 15 14" fill="none" xmlns="http://www.w3.org/2000/svg">
<g clip-path="url(#clip0_182_2962)">
<path fill-rule="evenodd" clip-rule="evenodd" d="M14.9066 7C14.9066 10.866 11.7726 14 7.90662 14C4.04062 14 0.906616 10.866 0.906616 7C0.906616 3.13401 4.04062 0 7.90662 0C11.7726 0 14.9066 3.13401 14.9066 7ZM8.15746 5.16771C7.47661 5.4509 6.11586 6.03703 4.07522 6.9261C3.74385 7.05788 3.57027 7.18679 3.55446 7.31284C3.52776 7.52587 3.79453 7.60976 4.15781 7.72399C4.20722 7.73953 4.25842 7.75562 4.31091 7.77269C4.66832 7.88887 5.1491 8.02479 5.39903 8.03018C5.62575 8.03508 5.87879 7.94162 6.15816 7.74978C8.06479 6.46275 9.04901 5.81222 9.1108 5.7982C9.15439 5.7883 9.2148 5.77586 9.25573 5.81224C9.29666 5.84862 9.29263 5.91752 9.2883 5.936C9.26187 6.04867 8.21469 7.02222 7.67277 7.52604C7.50383 7.6831 7.38399 7.79451 7.3595 7.81995C7.30462 7.87695 7.24869 7.93087 7.19494 7.98268C6.8629 8.30277 6.6139 8.54281 7.20872 8.93479C7.49456 9.12316 7.72329 9.27892 7.95148 9.43431C8.2007 9.60403 8.44927 9.77331 8.77089 9.98414C8.85283 10.0378 8.93108 10.0936 9.0073 10.148C9.29732 10.3547 9.55789 10.5405 9.87979 10.5109C10.0668 10.4937 10.2601 10.3178 10.3582 9.79321C10.5901 8.5535 11.0459 5.86743 11.1512 4.76057C11.1605 4.66359 11.1489 4.53948 11.1395 4.485C11.1302 4.43052 11.1107 4.3529 11.0399 4.29543C10.956 4.22738 10.8266 4.21303 10.7687 4.21405C10.5054 4.21869 10.1014 4.35914 8.15746 5.16771Z" fill="#89806F"/>
</g>
<defs>
<clipPath id="clip0_182_2962">
<rect width="14" height="14" fill="white" transform="translate(0.906616)"/>
</clipPath>
</defs>
</svg>
