<svg width="15" height="14" viewBox="0 0 15 14" fill="none" xmlns="http://www.w3.org/2000/svg">
<g clip-path="url(#clip0_182_2960)">
<path d="M7.90664 1.16663C9.36572 2.764 10.1949 4.83698 10.24 6.99996C10.1949 9.16294 9.36572 11.2359 7.90664 12.8333M7.90664 1.16663C6.44756 2.764 5.61836 4.83698 5.5733 6.99996C5.61836 9.16294 6.44756 11.2359 7.90664 12.8333M7.90664 1.16663C4.68498 1.16663 2.0733 3.7783 2.0733 6.99996C2.0733 10.2216 4.68498 12.8333 7.90664 12.8333M7.90664 1.16663C11.1283 1.16663 13.74 3.7783 13.74 6.99996C13.74 10.2216 11.1283 12.8333 7.90664 12.8333M2.36498 5.24996H13.4483M2.36497 8.74996H13.4483" stroke="#89806F" stroke-linecap="round" stroke-linejoin="round"/>
</g>
<defs>
<clipPath id="clip0_182_2960">
<rect width="14" height="14" fill="white" transform="translate(0.906616)"/>
</clipPath>
</defs>
</svg>
